<svg width="517" height="124" viewBox="0 0 517 124" fill="none" xmlns="http://www.w3.org/2000/svg">
<path d="M29.4001 49.8C31.7001 45.8 34.9501 42.7 39.1501 40.5C43.3501 38.2 48.3001 37.05 54.0001 37.05C60.7001 37.05 66.7501 38.8 72.1501 42.3C77.6501 45.8 81.9501 50.8 85.0501 57.3C88.2501 63.8 89.8501 71.4 89.8501 80.1C89.8501 88.8 88.2501 96.45 85.0501 103.05C81.9501 109.55 77.6501 114.55 72.1501 118.05C66.7501 121.55 60.7001 123.3 54.0001 123.3C48.3001 123.3 43.3501 122.2 39.1501 120C34.9501 117.7 31.7001 114.55 29.4001 110.55V122.25H9.79155e-05V11.25H29.4001V49.8ZM60.0001 80.1C60.0001 74.6 58.5001 70.35 55.5001 67.35C52.6001 64.25 49.0001 62.7 44.7001 62.7C40.4001 62.7 36.7501 64.25 33.7501 67.35C30.8501 70.45 29.4001 74.7 29.4001 80.1C29.4001 85.6 30.8501 89.9 33.7501 93C36.7501 96.1 40.4001 97.65 44.7001 97.65C49.0001 97.65 52.6001 96.1 55.5001 93C58.5001 89.8 60.0001 85.5 60.0001 80.1ZM124.303 30.3C119.103 30.3 114.903 28.9 111.703 26.1C108.603 23.2 107.053 19.6 107.053 15.3C107.053 10.9 108.603 7.25 111.703 4.35C114.903 1.44999 119.103 -8.58307e-06 124.303 -8.58307e-06C129.403 -8.58307e-06 133.503 1.44999 136.603 4.35C139.803 7.25 141.403 10.9 141.403 15.3C141.403 19.6 139.803 23.2 136.603 26.1C133.503 28.9 129.403 30.3 124.303 30.3ZM138.853 38.1V122.25H109.453V38.1H138.853ZM190.996 97.8H226.846V122.25H158.596V99L192.046 62.55H158.896V38.1H225.646V61.35L190.996 97.8ZM288.471 16.5C299.571 16.5 309.271 18.75 317.571 23.25C325.971 27.65 332.421 33.85 336.921 41.85C341.421 49.85 343.671 59 343.671 69.3C343.671 79.5 341.371 88.6 336.771 96.6C332.271 104.6 325.821 110.9 317.421 115.5C309.121 120 299.471 122.25 288.471 122.25H246.621V16.5H288.471ZM286.221 96.3C294.821 96.3 301.571 93.95 306.471 89.25C311.371 84.55 313.821 77.9 313.821 69.3C313.821 60.6 311.371 53.9 306.471 49.2C301.571 44.4 294.821 42 286.221 42H276.021V96.3H286.221ZM403.574 123.3C395.174 123.3 387.624 121.55 380.924 118.05C374.324 114.55 369.124 109.55 365.324 103.05C361.524 96.55 359.624 88.9 359.624 80.1C359.624 71.4 361.524 63.8 365.324 57.3C369.224 50.8 374.474 45.8 381.074 42.3C387.774 38.8 395.324 37.05 403.724 37.05C412.124 37.05 419.624 38.8 426.224 42.3C432.924 45.8 438.174 50.8 441.974 57.3C445.874 63.8 447.824 71.4 447.824 80.1C447.824 88.8 445.874 96.45 441.974 103.05C438.174 109.55 432.924 114.55 426.224 118.05C419.524 121.55 411.974 123.3 403.574 123.3ZM403.574 97.8C407.674 97.8 411.074 96.3 413.774 93.3C416.574 90.2 417.974 85.8 417.974 80.1C417.974 74.4 416.574 70.05 413.774 67.05C411.074 64.05 407.724 62.55 403.724 62.55C399.724 62.55 396.374 64.05 393.674 67.05C390.974 70.05 389.624 74.4 389.624 80.1C389.624 85.9 390.924 90.3 393.524 93.3C396.124 96.3 399.474 97.8 403.574 97.8ZM516.935 97.2V122.25H504.185C482.685 122.25 471.935 111.6 471.935 90.3V62.55H461.585V38.1H471.935V17.7H501.485V38.1H516.785V62.55H501.485V90.75C501.485 93.05 501.985 94.7 502.985 95.7C504.085 96.7 505.885 97.2 508.385 97.2H516.935Z" fill="url(#paint0_linear_249_209)"/>
<defs>
<linearGradient id="paint0_linear_249_209" x1="256.81" y1="-0.75" x2="256.81" y2="123.25" gradientUnits="userSpaceOnUse">
<stop stop-color="#8B8B8B" stop-opacity="0.65"/>
<stop offset="1" stop-color="#0B0B0B"/>
</linearGradient>
</defs>
</svg>
